<?xml version="1.0" encoding="UTF-8"?>
<svg viewBox="0 0 256 256" xmlns="http://www.w3.org/2000/svg" xmlns:xlink="http://www.w3.org/1999/xlink">
 <defs>
  <linearGradient id="a">
   <stop stop-color="#323232" offset="0"/>
   <stop stop-color="#a1a1a1" offset=".5"/>
   <stop stop-color="#505050" offset="1"/>
  </linearGradient>
  <linearGradient id="b">
   <stop stop-color="#bc500d" offset="0"/>
   <stop stop-color="#ff8f4d" offset=".5"/>
   <stop stop-color="#9b3900" offset="1"/>
  </linearGradient>
  <linearGradient id="g">
   <stop stop-color="#c017ad" offset="0"/>
   <stop stop-color="#d397ea" offset=".5"/>
   <stop stop-color="#7c3be8" offset="1"/>
  </linearGradient>
  <linearGradient id="r" x2="0" y1="887.41" y2="924.61" gradientUnits="userSpaceOnUse">
   <stop stop-color="#ccc7c1" offset="0"/>
   <stop stop-color="#fefefd" stop-opacity=".5802" offset="1"/>
  </linearGradient>
  <linearGradient id="h" x1="127.81" x2="127.82" y1="820.01" y2="1026.9" gradientUnits="userSpaceOnUse">
   <stop stop-color="#484848" offset="0"/>
   <stop stop-color="#aeaeae" offset=".7711"/>
   <stop stop-color="#2e2e2e" offset="1"/>
  </linearGradient>
  <linearGradient id="f">
   <stop stop-color="#2cd8c8" offset="0"/>
   <stop stop-color="#639a99" stop-opacity="0" offset="1"/>
  </linearGradient>
  <linearGradient id="s" x1="11.815" x2="243.85" gradientUnits="userSpaceOnUse">
   <stop stop-color="#454545" offset="0"/>
   <stop stop-color="#c4c4c4" offset=".5"/>
   <stop stop-color="#3d3d3d" offset="1"/>
  </linearGradient>
  <linearGradient id="d" x2="0" y1="63.75" y2="71.25" gradientUnits="userSpaceOnUse" xlink:href="#a"/>
  <linearGradient id="i" x2="0" y1="71.25" y2="63.748" gradientUnits="userSpaceOnUse" xlink:href="#b"/>
  <linearGradient id="c" x2="0" y1="51.75" y2="59.25" gradientUnits="userSpaceOnUse" xlink:href="#a"/>
  <linearGradient id="q" x2="0" y1="59.25" y2="51.75" gradientUnits="userSpaceOnUse" xlink:href="#b"/>
  <linearGradient id="e" x2="0" y1="39.75" y2="47.25" gradientUnits="userSpaceOnUse" xlink:href="#a"/>
  <linearGradient id="p" x2="0" y1="39.75" y2="47.25" gradientUnits="userSpaceOnUse" xlink:href="#g"/>
  <linearGradient id="o" x2="0" y1="75.75" y2="83.25" gradientUnits="userSpaceOnUse" xlink:href="#a"/>
  <linearGradient id="n" x2="0" y1="-83.25" y2="-75.75" gradientUnits="userSpaceOnUse" xlink:href="#b"/>
  <linearGradient id="m" x2="0" y1="83.25" y2="75.75" gradientUnits="userSpaceOnUse" xlink:href="#b"/>
  <linearGradient id="l" x2="0" y1="75.75" y2="83.287" gradientUnits="userSpaceOnUse" xlink:href="#g"/>
  <linearGradient id="k" x2="0" y1="849.69" y2="899.26" gradientUnits="userSpaceOnUse" xlink:href="#f"/>
  <linearGradient id="j" x2="0" y1="846.68" y2="884.24" gradientUnits="userSpaceOnUse" xlink:href="#f"/>
 </defs>
 <g transform="translate(-777.17 -839.82)">
  <g transform="matrix(1 0 0 1.1495 772.71 -83.216)">
   <path d="m52.035 841.74h157.8a6.3975 3.6771 0 0 1 6.3975 3.6771v31.868a6.3975 3.6771 0 0 1 -6.3975 3.6771h-157.8a6.3975 3.6771 0 0 1 -6.3975 -3.6771v-31.868a6.3975 3.6771 0 0 1 6.3975 -3.6771" fill="#98e3e6"/>
   <path d="m54.546 846.68c-1.3819 0-2.4944 0.67006-2.4944 1.5024v27.042c0 0.83231 1.1125 1.5024 2.4944 1.5024h154.65c1.3819 0 2.4944-0.67005 2.4944-1.5024v-27.042c0-0.8323-1.1125-1.5024-2.4944-1.5024zm2.5724 3.0517h149.51v23.944h-149.51z" fill="url(#k)" opacity=".3"/>
   <path d="m54.546 846.68c-1.3819 0-2.4944 0.67006-2.4944 1.5024v27.042c0 0.83231 1.1125 1.5024 2.4944 1.5024h154.65c1.3819 0 2.4944-0.67005 2.4944-1.5024v-27.042c0-0.8323-1.1125-1.5024-2.4944-1.5024zm0.07795 1.5493h154.5v26.949h-154.5z" fill="url(#j)" opacity=".6"/>
  </g>
  <g transform="matrix(.99987 0 0 1 776.76 47.082)">
   <path d="m23.784 820.01c-6.6188 0-11.969 7.3056-11.969 16.345v174.26c0 9.039 5.35 16.309 11.969 16.309h208.09c6.6188 0 11.938-7.2697 11.938-16.309v-174.26c0-9.0391-5.3187-16.345-11.938-16.345h-208.09zm30.156 14.297h154.66c2.7638 0 5 1.535 5 3.4486v31.109c0 1.5394-1.4638 2.8216-3.4688 3.2689v3.6641c0 1.9135-2.205 3.4486-4.9688 3.4486h-154.66c-2.7638 0-5-1.535-5-3.4486v-31.109c0-1.5394 1.4666-2.8202 3.4688-3.2689v-3.6641c0-1.9135 2.205-3.4486 4.9688-3.4486z" fill="url(#h)" stroke="#494949" stroke-width="1.6001"/>
   <path d="m23.752 820.01c-6.6138 0-11.94 4.5666-11.938 16.345v64.122h232.03l-0.0312-64.122c-3e-3 -11.778-5.2925-16.345-11.906-16.345h-208.16zm26.75 21.23h154.66c2.7638 0 4.9688 1.5351 4.9688 3.4486v31.109c0 1.9135-2.205 3.4486-4.9688 3.4486h-154.66c-2.7638 0-5-1.535-5-3.4486v-31.109c0-1.9135 2.2362-3.4486 5-3.4486z" fill="url(#s)" fill-rule="evenodd"/>
  </g>
  <path d="m827.26 888.33h154.65a4.9888 3.454 0 0 1 4.9888 3.454v31.086a4.9888 3.454 0 0 1 -4.9888 3.454h-154.65a4.9888 3.454 0 0 1 -4.9888 -3.454v-31.086a4.9888 3.454 0 0 1 4.9888 -3.454" fill="none" stroke="url(#r)" stroke-linecap="square" stroke-linejoin="round" stroke-width="4.1511"/>
  <g transform="matrix(1.116 0 0 1.4369 895.21 872.81)">
   <path d="m68.217 22.238-1.896 1.496-1.921-1.496v-3.0174l1.921-1.496 1.896 1.496v3.0174m-2.2204-4.7417-1.896 1.5214h-3.817l-1.896-1.5214 1.896-1.496h3.817l1.896 1.496m2.2204 11.208-1.896 1.496-1.921-1.496v-3.0174l1.921-1.496 1.896 1.496v3.0174m-8.183-6.4659-1.896 1.496-1.921-1.496v-3.0174l1.921-1.496 1.896 1.496v3.0174m5.9626 8.2662-1.921 1.496h-3.7921l-1.921-1.496 1.921-1.5214h3.7921l1.921 1.5214m-5.9626-1.8003-1.896 1.496-1.921-1.496v-3.0174l1.921-1.496 1.896 1.496v3.0174" opacity=".5"/>
   <path d="m74.139 30.473-2.0445 1.5269-1.8892-1.5269 1.9669-1.5528 1.9669 1.5528" opacity=".5"/>
  </g>
  <g transform="matrix(2.5255 0 0 2.1392 783.28 876.6)">
   <path d="m16.125 39.844c-0.97087 0-1.7812 0.81038-1.7812 1.7812v5.25c0 0.97087 0.81037 1.7812 1.7812 1.7812h9.75c0.97087 0 1.7812-0.81038 1.7812-1.7812v-5.25c0-0.97087-0.81038-1.7812-1.7812-1.7812h-9.75zm18 0c-0.97087 0-1.7812 0.81038-1.7812 1.7812v5.25c0 0.97087 0.81037 1.7812 1.7812 1.7812h9.75c0.97087 0 1.7812-0.81038 1.7812-1.7812v-5.25c0-0.97087-0.81038-1.7812-1.7812-1.7812h-9.75zm18 0c-0.97087 0-1.7812 0.81038-1.7812 1.7812v5.25c0 0.97087 0.81037 1.7812 1.7812 1.7812h9.75c0.97087 0 1.7812-0.81038 1.7812-1.7812v-5.25c0-0.97087-0.81038-1.7812-1.7812-1.7812h-9.75zm18 0c-0.97087 0-1.7812 0.81038-1.7812 1.7812v5.25c0 0.97087 0.81037 1.7812 1.7812 1.7812h9.75c0.97087 0 1.7812-0.81038 1.7812-1.7812v-5.25c0-0.97087-0.81038-1.7812-1.7812-1.7812h-9.75zm-54 12c-0.97087 0-1.7812 0.81038-1.7812 1.7812v5.25c0 0.97087 0.81037 1.7812 1.7812 1.7812h9.75c0.97087 0 1.7812-0.81038 1.7812-1.7812v-5.25c0-0.97087-0.81038-1.7812-1.7812-1.7812h-9.75zm18 0c-0.97087 0-1.7812 0.81038-1.7812 1.7812v5.25c0 0.97087 0.81037 1.7812 1.7812 1.7812h9.75c0.97087 0 1.7812-0.81038 1.7812-1.7812v-5.25c0-0.97087-0.81038-1.7812-1.7812-1.7812h-9.75zm18 0c-0.97087 0-1.7812 0.81038-1.7812 1.7812v5.25c0 0.97087 0.81037 1.7812 1.7812 1.7812h9.75c0.97087 0 1.7812-0.81038 1.7812-1.7812v-5.25c0-0.97087-0.81038-1.7812-1.7812-1.7812h-9.75zm18 0c-0.97087 0-1.7812 0.81038-1.7812 1.7812v5.25c0 0.97087 0.81037 1.7812 1.7812 1.7812h9.75c0.97087 0 1.7812-0.81038 1.7812-1.7812v-5.25c0-0.97087-0.81038-1.7812-1.7812-1.7812h-9.75zm-54 12c-0.97087 0-1.7812 0.81038-1.7812 1.7812v5.25c0 0.97087 0.81037 1.7812 1.7812 1.7812h9.75c0.97087 0 1.7812-0.81038 1.7812-1.7812v-5.25c0-0.97087-0.81038-1.7812-1.7812-1.7812h-9.75zm18 0c-0.97087 0-1.7812 0.81038-1.7812 1.7812v5.25c0 0.97087 0.81037 1.7812 1.7812 1.7812h9.75c0.97087 0 1.7812-0.81038 1.7812-1.7812v-5.25c0-0.97087-0.81038-1.7812-1.7812-1.7812h-9.75zm18 0c-0.97087 0-1.7812 0.81038-1.7812 1.7812v5.25c0 0.97087 0.81037 1.7812 1.7812 1.7812h9.75c0.97087 0 1.7812-0.81038 1.7812-1.7812v-5.25c0-0.97087-0.81038-1.7812-1.7812-1.7812h-9.75zm18 0c-0.97087 0-1.7812 0.81038-1.7812 1.7812v5.25c0 0.97087 0.81037 1.7812 1.7812 1.7812h9.75c0.97087 0 1.7812-0.81038 1.7812-1.7812v-5.25c0-0.97087-0.81038-1.7812-1.7812-1.7812h-9.75zm-54 12c-0.97087 0-1.7812 0.81038-1.7812 1.7812v5.25c0 0.97087 0.81037 1.7812 1.7812 1.7812h9.75c0.97087 0 1.7812-0.81038 1.7812-1.7812v-5.25c0-0.97087-0.81038-1.7812-1.7812-1.7812h-9.75zm18 0c-0.97088-2e-6 -1.7812 0.81038-1.7812 1.7812v5.25c0 0.97087 0.81038 1.7812 1.7812 1.7812h9.75c0.97087 0 1.7812-0.81038 1.7812-1.7812v-5.25c-2e-6 -0.97087-0.81038-1.7812-1.7812-1.7812h-9.75zm18 0c-0.97087 0-1.7812 0.81038-1.7812 1.7812v5.25c0 0.97087 0.81037 1.7812 1.7812 1.7812h9.75c0.97087 0 1.7812-0.81038 1.7812-1.7812v-5.25c0-0.97087-0.81038-1.7812-1.7812-1.7812h-9.75zm18 0c-0.97087 0-1.7812 0.81038-1.7812 1.7812v5.25c0 0.97087 0.81037 1.7812 1.7812 1.7812h9.75c0.97087 0 1.7812-0.81038 1.7812-1.7812v-5.25c0-0.97087-0.81038-1.7812-1.7812-1.7812h-9.75z" fill="#232323" opacity=".7219"/>
   <path d="m16.125,40.5c-.62325,0-1.125.50175-1.125,1.125v5.25c0,.62325.50175,1.125 1.125,1.125h9.75c.62325,0 1.125-.50175 1.125-1.125v-5.25c0-.62325-.50175-1.125-1.125-1.125h-9.75zm18,0c-.62325,0-1.125.50175-1.125,1.125v5.25c0,.62325.50175,1.125 1.125,1.125h9.75c.62325,0 1.125-.50175 1.125-1.125v-5.25c0-.62325-.50175-1.125-1.125-1.125h-9.75zm18,0c-.62325,0-1.125.50175-1.125,1.125v5.25c0,.62325.50175,1.125 1.125,1.125h9.75c.62325,0 1.125-.50175 1.125-1.125v-5.25c0-.62325-.50175-1.125-1.125-1.125h-9.75zm18,0c-.62325,0-1.125.50175-1.125,1.125v5.25c0,.62325.50175,1.125 1.125,1.125h9.75c.62325,0 1.125-.50175 1.125-1.125v-5.25c0-.62325-.50175-1.125-1.125-1.125h-9.75zm-54,12c-.62325,0-1.125.50175-1.125,1.125v5.25c0,.62325.50175,1.125 1.125,1.125h9.75c.62325,0 1.125-.50175 1.125-1.125v-5.25c0-.62325-.50175-1.125-1.125-1.125h-9.75zm18,0c-.62325,0-1.125.50175-1.125,1.125v5.25c0,.62325.50175,1.125 1.125,1.125h9.75c.62325,0 1.125-.50175 1.125-1.125v-5.25c0-.62325-.50175-1.125-1.125-1.125h-9.75zm18,0c-.62325,0-1.125.50175-1.125,1.125v5.25c0,.62325.50175,1.125 1.125,1.125h9.75c.62325,0 1.125-.50175 1.125-1.125v-5.25c0-.62325-.50175-1.125-1.125-1.125h-9.75zm18,0c-.62325,0-1.125.50175-1.125,1.125v5.25c0,.62325.50175,1.125 1.125,1.125h9.75c.62325,0 1.125-.50175 1.125-1.125v-5.25c0-.62325-.50175-1.125-1.125-1.125h-9.75zm-54,12c-.62325,0-1.125.50175-1.125,1.125v5.25c0,.62325.50175,1.125 1.125,1.125h9.75c.62325,0 1.125-.50175 1.125-1.125v-5.25c0-.62325-.50175-1.125-1.125-1.125h-9.75zm18,0c-.62325,0-1.125.50175-1.125,1.125v5.25c0,.62325.50175,1.125 1.125,1.125h9.75c.62325,0 1.125-.50175 1.125-1.125v-5.25c0-.62325-.50175-1.125-1.125-1.125h-9.75zm18,0c-.62325,0-1.125.50175-1.125,1.125v5.25c0,.62325.50175,1.125 1.125,1.125h9.75c.62325,0 1.125-.50175 1.125-1.125v-5.25c0-.62325-.50175-1.125-1.125-1.125h-9.75zm18,0c-.62325,0-1.125.50175-1.125,1.125v5.25c0,.62325.50175,1.125 1.125,1.125h9.75c.62325,0 1.125-.50175 1.125-1.125v-5.25c0-.62325-.50175-1.125-1.125-1.125h-9.75zm-54,12c-.62325,0-1.125.50175-1.125,1.125v5.25c0,.62325.50175,1.125 1.125,1.125h9.75c.62325,0 1.125-.50175 1.125-1.125v-5.25c0-.62325-.50175-1.125-1.125-1.125h-9.75zm18,0c-.62325,0-1.125.50175-1.125,1.125v5.25c0,.62325.50175,1.125 1.125,1.125h9.75c.62325,0 1.125-.50175 1.125-1.125v-5.25c0-.62325-.50175-1.125-1.125-1.125h-9.75zm18,0c-.62325,0-1.125.50175-1.125,1.125v5.25c0,.62325.50175,1.125 1.125,1.125h9.75c.62325,0 1.125-.50175 1.125-1.125v-5.25c0-.62325-.50175-1.125-1.125-1.125h-9.75zm18,0c-.62325,0-1.125.50175-1.125,1.125v5.25c0,.62325.50175,1.125 1.125,1.125h9.75c.62325,0 1.125-.50175 1.125-1.125v-5.25c0-.62325-.50175-1.125-1.125-1.125h-9.75z" opacity=".6"/>
   <g transform="translate(0,.25)">
    <path d="m16.125,63.75h9.75a1.125,1.125 0 0,1 1.125,1.125v5.25a1.125,1.125 0 0,1 -1.125,1.125h-9.75a1.125,1.125 0 0,1 -1.125-1.125v-5.25a1.125,1.125 0 0,1 1.125-1.125" fill="url(#d)"/>
    <path d="m19.43 69.822v-0.68884h1.1503v-3.1674l-1.114 0.69543v-0.72839l1.1634-0.75476h0.87671v3.9551h1.0646v0.68884h-3.141" fill="#fff"/>
    <path d="m34.125,63.75h9.75a1.125,1.125 0 0,1 1.125,1.125v5.25a1.125,1.125 0 0,1 -1.125,1.125h-9.75a1.125,1.125 0 0,1 -1.125-1.125v-5.25a1.125,1.125 0 0,1 1.125-1.125" fill="url(#d)"/>
    <path d="m37.37512,69.85656v-.6427c.10547-.23071.23401-.43835.38562-.62292 .15161-.18677.30981-.35705.47461-.51086 .16699-.15601.33179-.29993.49438-.43177s.31201-.26257.44165-.38562c.13183-.12524.2384-.25049.3197-.37573s.12194-.25818.12195-.3988c-7e-006-.20654-.05164-.35925-.15491-.45813s-.25488-.14831-.45483-.14832-.34937.05384-.45483.1615c-.10327.10547-.17029.26477-.20105.47791l-.93274-.05273c.02197-.18237.06702-.35375.13513-.51416s.16479-.30102.29004-.42188 .28564-.21533.47461-.28345 .41858-.10546.68225-.10547c.25048,4e-006 .47241.02967.66577.08899s.35595.14173.48779.25378 .2318.24939.29993.41199 .10217.34388.10217.55041c-7e-006,.21753-.04285.41419-.12854.58997s-.19556.33838-.32959.48779-.28345.28565-.44825.41528l-.47461.37903c-.15381.12305-.29444.24719-.42188.37244s-.21863.25928-.28015.4021h2.15552v.76135h-3.24976" fill="#fff"/>
    <path d="m52.125,63.75h9.75a1.125,1.125 0 0,1 1.125,1.125v5.25a1.125,1.125 0 0,1 -1.125,1.125h-9.75a1.125,1.125 0 0,1 -1.125-1.125v-5.25a1.125,1.125 0 0,1 1.125-1.125" fill="url(#d)"/>
    <path d="m58.67762,68.52996c0,.21094-.03516.401-.10547.57019s-.17139.30981-.30982.42847-.31092.20984-.51746.27356c-.20434.06152-.44274.09229-.71521.09229-.30323,0-.55921-.03845-.76794-.11536s-.37683-.17798-.51087-.30322-.23181-.27136-.29993-.43176-.10877-.323-.12854-.48779l.94263-.0824c.01318.09888.03735.19006.07251.27356s.08679.15161.14831.21094 .13623.10547.22412.13843 .19556.04614.3164.04614c.22193,1e-006 .39442-.05493.51746-.1648s.18457-.27795.18457-.50427c-8e-006-.13843-.02967-.24939-.08899-.33289s-.13073-.14722-.22082-.19116c-.08789-.04614-.18348-.0769-.28674-.09228s-.20105-.02307-.29334-.02307h-.32299v-.74817h.30323c.09228,4e-006 .18566-.0088.28015-.02637 .09667-.01758.18347-.04944.26038-.09558s.13953-.10986.18787-.19116 .07251-.18896.07251-.31641c0-.19116-.05383-.34057-.1615-.44824s-.26038-.16479-.46472-.1648c-.19117,3e-006-.34608.05274-.46473.1582s-.18348.25489-.20105.44824l-.92615-.06592c.02637-.21753.0857-.40649.17797-.5669s.21204-.29333.35267-.3988 .30652-.18347.49108-.23401 .38013-.0791.58667-.0791c.27246,5e-006 .50647.03296.70203.09888s.35595.15491.4812.26697 .21752.2428.27685.39221 .08899.30872.08899.47791c0,.13623-.01978.26368-.05933.38233s-.09998.22193-.18127.31641-.18127.17249-.30652.2406-.27357.11536-.44495.14832v.01318c.19116.02197.35706.06592.49768.13184 .14063.06372.25598.14392.34607.2406s.1571.20655.20105.32959 .06592.24939.06592.38562" fill="#fff"/>
    <path d="m70.125,63.75h9.75a1.125,1.125 0 0,1 1.125,1.125v5.25a1.125,1.125 0 0,1 -1.125,1.125h-9.75a1.125,1.125 0 0,1 -1.125-1.125v-5.25a1.125,1.125 0 0,1 1.125-1.125" fill="url(#i)"/>
    <path d="m75.408 67.91v1.4941h-0.82764v-1.4941h-1.4612v-0.82031h1.4612v-1.4941h0.82764v1.4941h1.4722v0.82031h-1.4722" fill="#fff"/>
   </g>
   <g transform="translate(0,.25)">
    <path d="m16.125,51.75h9.75a1.125,1.125 0 0,1 1.125,1.125v5.25a1.125,1.125 0 0,1 -1.125,1.125h-9.75a1.125,1.125 0 0,1 -1.125-1.125v-5.25a1.125,1.125 0 0,1 1.125-1.125" fill="url(#c)"/>
    <path d="m22.18817,56.87604v.94592h-.8833v-.94592h-2.11267v-.69543l1.96106-3.00257h1.03491v3.00916h.61963v.68884h-.61963m-.8833-2.20825c-3e-006-.03735-3e-006-.08569 0-.14502s.0044-.12414.0066-.18787 .0077-.12414.0099-.18127 .0088-.10547.01318-.13843l-.05273.10547-.0824.14502-.09229.15161-.0824.13184-1.07776,1.63806h1.35791v-1.51941" fill="#fff"/>
    <path d="m34.125,51.75h9.75a1.125,1.125 0 0,1 1.125,1.125v5.25a1.125,1.125 0 0,1 -1.125,1.125h-9.75a1.125,1.125 0 0,1 -1.125-1.125v-5.25a1.125,1.125 0 0,1 1.125-1.125" fill="url(#c)"/>
    <path d="m40.67926,56.24323c-8e-006,.23291-.03736.44824-.11207.64599s-.18127.36585-.32629.51087c-.14503.14282-.3252.25488-.54053.33618-.21313.0791-.46033.11865-.74157.11865-.25928-1e-006-.4856-.03076-.67895-.09228s-.35706-.15051-.49109-.26038-.23621-.2428-.31311-.39221c-.07471-.14941-.12634-.30981-.15491-.4812l.92615-.07581c.01758.07251.04175.14282.07251.21094s.078.12854.13513.18127 .12744.09558.21094.12854 .18457.04614.30322.04614c.23071,1e-006 .41418-.07361.55041-.22082s.20765-.35925.20765-.63611c0-.12305-.01758-.23401-.05273-.33289-.03296-.09887-.08131-.18347-.14502-.25378s-.13844-.12414-.23072-.1615-.19336-.05603-.30981-.05603c-.15381,3e-006-.28015.02967-.37903.08899s-.18237.12744-.25049.21094h-.90308l.1615-2.61365h2.79163v.68885h-1.95117l-.07581,1.17334c.09228-.0813.20874-.15051.34936-.20764s.30432-.08899.49109-.08899c.22851,3e-006 .43286.03736.61304.11206s.33288.17908.45813.31311 .22082.29553.28674.4845 .09887.39441.09888.62292" fill="#fff"/>
    <path d="m52.125,51.75h9.75a1.125,1.125 0 0,1 1.125,1.125v5.25a1.125,1.125 0 0,1 -1.125,1.125h-9.75a1.125,1.125 0 0,1 -1.125-1.125v-5.25a1.125,1.125 0 0,1 1.125-1.125" fill="url(#c)"/>
    <path d="m58.63147,56.3042c-8e-006,.23291-.03297.44714-.09888.6427-.06592.19336-.16479.36035-.29663.50098s-.29224.24719-.48779.3263-.42188.11536-.67896.11536c-.54712,0-.9679-.19116-1.26232-.57349s-.43836-.95361-.43836-1.70728c0-.82837.14832-1.45129.44495-1.86878s.72509-.62951 1.2788-.62952c.18457,4e-006 .35267.01978.50428.05933s.28674.09888.40539.18457 .21973.19666.30323.33289c.08348.13404.15051.29774.20105.49109l-.87342.12195c-.04395-.16259-.11536-.27905-.21423-.34937s-.21424-.10876-.34607-.10876c-.24829,3e-006-.44385.12415-.58667.37244s-.21093.62513-.21093,1.13049c.09887-.16479.2362-.29113.41199-.37903s.37463-.13183.59656-.13184c.20433,3e-006 .38891.03406.55371.10217 .16698.06592.30871.1626.42517.29004s.20983.27906.27356.46142 .09558.38782.09558.61633m-.92944.02637c0-.12524-.01428-.2373-.04285-.33618s-.07251-.18677-.13183-.25708-.12854-.12414-.21423-.1615-.18457-.05932-.29663-.05933c-.0813,1e-006-.1626.01319-.2439.03955s-.15381.06921-.21753.12854-.11536.13074-.15491.22082-.05933.19885-.05933.32629 .01647.25488.04944.36914 .0791.21424.13842.29993c.06152.0835.13513.14941.22082.19775s.18237.06921.29004.06921c.20873,1e-006 .37133-.07361.48779-.22082s.17468-.35486.17468-.61633" fill="#fff"/>
    <path d="m70.125,51.75h9.75a1.125,1.125 0 0,1 1.125,1.125v5.25a1.125,1.125 0 0,1 -1.125,1.125h-9.75a1.125,1.125 0 0,1 -1.125-1.125v-5.25a1.125,1.125 0 0,1 1.125-1.125" fill="url(#q)"/>
    <path d="m73.385 55.947v-0.89355h3.2294v0.89355h-3.2294" fill="#fff"/>
   </g>
   <g transform="translate(0,.25)">
    <path d="m16.125,39.75h9.75a1.125,1.125 0 0,1 1.125,1.125v5.25a1.125,1.125 0 0,1 -1.125,1.125h-9.75a1.125,1.125 0 0,1 -1.125-1.125v-5.25a1.125,1.125 0 0,1 1.125-1.125" fill="url(#e)"/>
    <path d="m22.58368,41.91302c-.20874.32959-.4065.64929-.59326.95911-.18457.30982-.34607.62183-.4845.93604s-.24829.63391-.32959.9657-.11865.67896-.11865,1.0481h-.9657c-1e-006-.36694.04285-.71521.12854-1.0448s.20654-.65478.35596-.96899 .323-.62402.52075-.92944 .40649-.62072.62622-.93933h-2.30713v-.76135h3.16736v.73499" fill="#fff"/>
    <path d="m34.125,39.75h9.75a1.125,1.125 0 0,1 1.125,1.125v5.25a1.125,1.125 0 0,1 -1.125,1.125h-9.75a1.125,1.125 0 0,1 -1.125-1.125v-5.25a1.125,1.125 0 0,1 1.125-1.125" fill="url(#e)"/>
    <path d="m40.66608,44.51513c0,.19995-.03296.38452-.09888.55371s-.167.31201-.30322.43506-.30872.21533-.51746.28345-.45704.10217-.74487.10217-.53394-.03406-.74487-.10217-.38233-.1626-.52075-.28345-.2373-.26807-.30322-.43506-.09888-.34936-.09888-.54712c-1e-006-.16919.02637-.3186.0791-.44824s.12305-.24499.21094-.33948 .18896-.16919.30322-.22412c.11426-.05713.23181-.09558.35266-.11536v-.01318c-.12964-.02856-.2461-.0758-.34936-.14172s-.19116-.14502-.26367-.2373-.12854-.19446-.16809-.30652-.05603-.23291-.05603-.35596c0-.18457.03296-.35266.09888-.50427s.16699-.28125.29663-.38892 .29004-.19006.4812-.24719 .41638-.08898.66907-.08899c.27026,4e-006 .50317.03077.69873.09229s.36035.14393.48779.25378 .22193.23731.28345.38892 .09229.31861.09229.50098c0,.12085-.01978.23841-.05933.35266s-.09229.21424-.1648.30652-.1615.17029-.26696.23401c-.10328.06372-.22083.10877-.35267.13513v.01318c.13623.02197.26258.06262.37903.12195s.22082.13294.30652.22742 .15271.20435.20105.33618 .07251.27686.07251.44165m-1.06787-2.11927c0-.09228-.0099-.17688-.02966-.25378s-.05273-.14611-.09887-.20105c-.04615-.05713-.10877-.10107-.18787-.13184s-.17469-.04943-.29334-.04944c-.11426,4e-006-.20984.01648-.28674.04944s-.13843.07471-.18457.13184c-.04614.05494-.0791.12195-.09888.20105s-.02966.1615-.02966.25378c-2e-006,.0813.0077.1615.02307.2406s.04834.15052.09229.21423 .10547.11206.18457.15161 .18127.05933.30652.05933 .2373-.01977.31641-.05933 .14282-.09118.18457-.15491 .06921-.13513.0824-.21423 .01978-.1582.01978-.2373m.10877,2.04346c0-.09448-.01099-.18567-.03296-.27356s-.05713-.16479-.11207-.23071-.12635-.12195-.22082-.1615-.21424-.06262-.35925-.06262c-.13184,3e-006-.2428.02088-.33289.06262s-.1593.09339-.21423.1615-.09119.14722-.11536.2373-.03296.18128-.03296.28015c-1e-006,.11646.01098.22302.03296.3197s.06372.18018.11865.25049c.05713.06812.13184.12085.22412.1582s.20764.05603.34607.05603 .25268-.01868.34277-.05603 .1615-.09448.21424-.1648 .08899-.15381.10877-.25049 .03296-.20764.03296-.32629" fill="#fff"/>
    <path d="m52.125,39.75h9.75a1.125,1.125 0 0,1 1.125,1.125v5.25a1.125,1.125 0 0,1 -1.125,1.125h-9.75a1.125,1.125 0 0,1 -1.125-1.125v-5.25a1.125,1.125 0 0,1 1.125-1.125" fill="url(#e)"/>
    <path d="m58.63477,43.42749c0,.82398-.15051,1.44031-.45153,1.849s-.7284.61304-1.28211.61304c-.19995,0-.38012-.02087-.54053-.06262s-.29663-.10657-.41528-.19446-.21973-.20105-.30323-.33948-.14611-.30322-.19446-.49439l.87013-.12195c.04394.1648.11535.28674.21423.36584s.22742.11865.37903.11865c.12525,1e-006 .23731-.02966.33619-.08899s.18347-.14941.25378-.27026 .12414-.27356.1615-.45813c.03955-.18677.06042-.40649.06262-.65918-.04394.0857-.10218.1615-.17468.22742s-.15491.12085-.24719.1648-.18677.078-.29004.10217-.20763.03296-.31311.03296c-.20215,2e-006-.38562-.03515-.55041-.10547s-.30543-.17578-.42188-.30982-.20654-.29553-.27027-.4845-.09228-.40649-.09228-.646c0-.24609.03625-.46582.10877-.65918s.18127-.35595.3197-.48779 .30761-.2351.50757-.30322 .43066-.10546.68555-.10547c.26806,4e-006 .50427.04615.70861.13843 .20655.09009.37903.23072.51746.42188s.2428.42957.31311.7218 .10877.63501.10877,1.03491m-.97888-.64929c-8e-006-.13183-.01538-.25488-.04615-.36914-.02856-.11645-.07251-.21643-.13183-.29993-.05933-.08569-.13183-.15271-.21753-.20105s-.18457-.0725-.29663-.07251c-.10328,5e-006-.19556.01978-.27685.05933s-.15052.09229-.20765.1648-.10108.1604-.13183.26367-.04285.21973-.04285.34937c0,.12085.01428.23401.04285.33948 .02856.10327.07032.19336.12524.27026 .05493.07471.12415.13404.20765.17798s.17907.06262.28673.06262c.0857,2e-006 .16919-.01538.25049-.04614s.15711-.0769.22082-.13843c.06592-.06152.11865-.13842.15821-.23071s.05932-.20434.05932-.32959" fill="#fff"/>
    <path d="m70.125,39.75h9.75a1.125,1.125 0 0,1 1.125,1.125v5.25a1.125,1.125 0 0,1 -1.125,1.125h-9.75a1.125,1.125 0 0,1 -1.125-1.125v-5.25a1.125,1.125 0 0,1 1.125-1.125" fill="url(#p)"/>
    <path d="m73.1543,44.94433c.16211,1e-006 .30176-.02246.41895-.06738 .11913-.04687.22168-.10742.30761-.18164s.16016-.1582.21681-.25195 .10643-.18848.14355-.28418l.75292.28418c-.06054.14844-.13965.29395-.2373.43652s-.21973.26855-.36622.37793-.32129.19824-.52441.2666-.43848.09961-.71192.09961c-.35742,0-.66699-.05273-.92871-.1582s-.47852-.25586-.65039-.44531-.29688-.41797-.38086-.67969-.12305-.54785-.12305-.8584c0-.32226.04102-.61328.12305-.87305s.20996-.48046.37793-.66211 .37988-.32421.63574-.42188 .56054-.14941.9082-.14941c.26953,4e-006 .50488.02832.70605.08496s.37793.13672.52442.24023 .27051.22266.36621.36328 .17383.292.22853.45996l-.76172.20801c-.02735-.08789-.06934-.17187-.12598-.25195s-.12892-.15429-.2168-.2168-.1875-.1123-.30468-.14941-.25001-.05859-.39844-.05859c-.20898,2e-006-.38867.03418-.53906.10254s-.27442.16211-.37207.28711c-.09571.125-.167.27539-.21388.45117-.04492.17383-.06737.36914-.06737.58594 0,.21485.02245.41211.06737.5918 .04687.17774.11914.33106.2168.45996s.22266.22949.375.30176 .33886.1084.55371.1084m2.4082.62109v-4.12793h3.24609v.66797h-2.38183v1.03711h2.20312v.66797h-2.20312v1.08691h2.50195v.66797h-3.36622" fill="#fff"/>
   </g>
   <g transform="translate(0,.25)">
    <path d="m16.125,75.75h9.75a1.125,1.125 0 0,1 1.125,1.125v5.25a1.125,1.125 0 0,1 -1.125,1.125h-9.75a1.125,1.125 0 0,1 -1.125-1.125v-5.25a1.125,1.125 0 0,1 1.125-1.125" fill="url(#o)"/>
    <path d="m22.6051,79.49999c-3e-006,.44385-.04065.81848-.12195,1.12391-.0813.30323-.19446.54932-.33948.73828-.14283.18677-.31311.3219-.51087.4054s-.40979.12195-.6427.12195-.44715-.04065-.6427-.12195-.36365-.21533-.50427-.4021-.25049-.43506-.32959-.73828c-.0791-.30541-.11865-.68115-.11865-1.1272 0-.46802.03845-.85473.11536-1.16015s.19006-.55261.33289-.73499 .31311-.30981.51086-.38233 .42077-.11206.66248-.11206c.22632,0 .43616.03736.62952.11206 .19555.07252.36365.19996.50427.38233s.25378.42737.33289.73499 .12195.69214.12195,1.16015m-.92944,0c-2e-006-.32739-.01209-.59765-.03626-.81079-.02417-.21533-.06262-.38562-.11536-.51086s-.12195-.21643-.20764-.26697c-.0835-.05053-.18567-.0758-.30652-.07581-.12964,8e-006-.23841.02638-.32629.0791s-.1593.13953-.21423.26697-.09119.29883-.11536.51416c-.02197.21313-.03296.4812-.03296.80419s.01208.58448.03625.79761 .06262.38453.11536.51416 .12195.21753.20764.27026 .19116.0791.31641.0791c.12085,0 .22412-.02637.30982-.0791s.156-.14282.21094-.27026 .09448-.30103.11865-.51416c.02636-.21313.03955-.479.03955-.79761" fill="#fff"/>
    <path transform="scale(1,-1)" d="m34.125-83.25h9.75a1.125,1.125 0 0,1 1.125,1.125v5.25a1.125,1.125 0 0,1 -1.125,1.125h-9.75a1.125,1.125 0 0,1 -1.125-1.125v-5.25a1.125,1.125 0 0,1 1.125-1.125" fill="url(#n)"/>
    <path d="m38.471 81.558v-1.117h1.0584v1.117h-1.0584" fill="#fff"/>
    <path d="m52.125,75.75h9.75a1.125,1.125 0 0,1 1.125,1.125v5.25a1.125,1.125 0 0,1 -1.125,1.125h-9.75a1.125,1.125 0 0,1 -1.125-1.125v-5.25a1.125,1.125 0 0,1 1.125-1.125" fill="url(#m)"/>
    <path d="m59.82788,80.39813c0,.27466-.03077.50647-.09228.69544s-.14502.34167-.25049.45813c-.10548.11426-.22962.19665-.37243.24719s-.29114.0758-.45154.0758-.3186-.02527-.46142-.0758-.26368-.13294-.36914-.24719c-.10328-.11646-.18568-.26917-.24719-.45813s-.089-.42078-.08899-.69544c-8e-006-.29004.02966-.52954.08899-.71851s.14501-.34277.25048-.45483 .22961-.19336.37244-.23731c.14501-.04614.30102-.06921.46802-.06921 .15819,0 .30761.02307.44823.06921 .14063.04395.26258.12305.36585.23731 .10547.11206.18786.26367.24719.45483s.09228.42847.09228.71851m-4.00452,1.42383h-.67895l3.03222-4.64393h.68885l-3.04212,4.64393m-.47461-4.69666c.1582,7e-006 .30762.02308.44824.06922 .14063.04395.26367.12195.36914.23401s.18897.26368.25048.45483 .09229.42847.09229.71851c0,.27467-.03077.50648-.09229.69544s-.14612.34168-.25377.45813-.22962.19995-.37244.25049-.29553.07581-.45813.0758-.31201-.02526-.45482-.0758-.26367-.13293-.36914-.24719c-.10328-.11645-.18568-.26916-.2472-.45813s-.08898-.42188-.08898-.69873c0-.29003.02966-.52954.08898-.71851s.14173-.34276.2472-.45483 .22961-.19006.37243-.23401c.14502-.04614.30102-.06921.46802-.06922m3.77051,3.27283c-8e-006-.19116-.0099-.34936-.02966-.47461s-.04506-.22412-.0824-.29663-.0835-.12634-.13842-.1549-.11976-.04614-.19446-.04615c-.08131,7e-006-.15163.01538-.21094.04615s-.10438.0802-.14172.1549-.06592.17468-.08569.29993-.02637.28235-.02637.47131c-8e-006,.18457.0088.33838.02637.46142s.04504.21863.0824.29334 .08788.12744.14502.1582 .12523.04615.20435.04615c.0725,0 .13622-.01538.19116-.04615 .05712-.03076.10437-.0824.14172-.1549s.06921-.17358.08899-.29663 .02965-.27685.02966-.46142m-3.32556-1.79627c0-.18896-.0099-.34497-.02967-.46802-.01758-.12524-.04504-.22412-.0824-.29663s-.0835-.12634-.13842-.1549-.11976-.04614-.19446-.04615c-.0813,8e-006-.15161.01539-.21093.04615s-.10767.0835-.14502.1582-.06593.17139-.0857.29663c-.01758.12305-.02637.27796-.02637.46472 0,.18458.0088.33839.02637.46142s.04834.22193.0857.29663 .08788.12854.14502.1615 .12524.04615.20434.04615c.0747,0 .13953-.01538.19446-.04615 .05712-.03076.10437-.08349.14172-.1582s.06812-.17358.08569-.29663c.01978-.12524.02967-.28015.02967-.46472" fill="#fff"/>
    <path d="m70.125,75.75h9.75a1.125,1.125 0 0,1 1.125,1.125v5.25a1.125,1.125 0 0,1 -1.125,1.125h-9.75a1.125,1.125 0 0,1 -1.125-1.125v-5.25a1.125,1.125 0 0,1 1.125-1.125" fill="url(#l)"/>
    <path d="m73.12 78.899v-0.81665h3.761v0.81665h-3.761m0 2.0178v-0.80932h3.761v0.80932h-3.761" fill="#fff"/>
   </g>
  </g>
  <g transform="matrix(1 0 0 1.1495 776.17 -90.151)">
   <path d="m24.344 829.14c-0.41331 0-0.81648 0.0309-1.2188 0.0625-5.7135 0.44879-10.197 4.1417-10.656 12.688-0.02579 0.47945-0.06264 0.95846-0.0625 1.4688v4c-1.4e-4 -0.51028 0.03671-0.9893 0.0625-1.4688 0.45971-8.5458 4.9428-12.239 10.656-12.688 0.40227-0.0316 0.80544-0.0625 1.2188-0.0625h208.12c0.40279 1e-3 0.79531 0.0153 1.1875 0.0625h0.0312c5.7096 0.44879 10.164 4.1417 10.625 12.688 0.0259 0.47945 0.0624 0.95847 0.0625 1.4688v-4c-1.5e-4 -0.51029-0.0366-0.9893-0.0625-1.4688-0.46134-8.5458-4.9154-12.239-10.625-12.688h-0.0312c-0.39219-0.0472-0.78471-0.0613-1.1875-0.0625h-208.12zm21.75 48.531v4c0 1.6646 2.2366 3 5 3h154.62c2.7634 0 4.9688-1.3354 4.9688-3v-4c0 1.6646-2.2053 3-4.9688 3h-154.62c-2.7634 0-5-1.3354-5-3z" fill="#fff" opacity=".8438" stroke="#c7c7c7" stroke-linejoin="round" stroke-width=".74616"/>
   <path transform="translate(0 796.36)" d="m51.09375,50.84375c-.54029,0-1.04406.06165-1.53125.15625-.07662.0149-.14375.0455-.21875.0625l-.1875.03125-.3125.09375c-.23168.07044-.47801.12865-.6875.21875l-.09375.03125c-.33691.15341-.61294.36335-.875.5625-.04772.0356-.11125.05675-.15625.09375-.12685.10604-.24046.22788-.34375.34375-.02609.0287-.03797.06435-.0625.09375-.06068.07341-.13678.14205-.1875.21875-.09339.14127-.16157.28644-.21875.4375-.01206.0318-.02088.06155-.03125.09375-.01606.05101-.01959.10435-.03125.15625-.03041.13431-.0625.26672-.0625.40625v4c0-.13953.03209-.27194.0625-.40625 .01166-.05194.01519-.10524.03125-.15625l.03125-.09375c.05718-.15106.12536-.29623.21875-.4375 .05072-.07672.12682-.14534.1875-.21875 .02453-.02935.03641-.06497.0625-.09375 .10329-.11587.2169-.23771.34375-.34375 .045-.037.10853-.05806.15625-.09375 .26206-.19915.53809-.40909.875-.5625l.09375-.03125c.20949-.09014.45582-.14831.6875-.21875 .10169-.03092.20704-.0669.3125-.09375 .05944-.01502.12691-.01758.1875-.03125 .075-.01703.14213-.04756.21875-.0625 .48719-.09457.99096-.15625 1.53125-.15625h154.625c2.76343,0 4.96875,1.33539 4.96875,3v-4c0-1.66461-2.20532-3-4.96875-3h-154.625zm193.28125,51.53125v4h.0312v-4h-.0312zm-231.96875,95.8125v4c0,7.8634 5.35086,14.1875 11.96875,14.1875h208.0625c6.61789,0 11.9375-6.3241 11.9375-14.1875v-4c0,7.8634-5.31961,14.1875-11.9375,14.1875h-208.0625c-6.61789,0-11.96875-6.3241-11.96875-14.1875z" opacity=".7"/>
  </g>
 </g>
</svg>
