<?xml version="1.0" encoding="UTF-8"?>
<svg version="1.1" viewBox="0 0 101.28874 84.82851" xmlns="http://www.w3.org/2000/svg">
 <g transform="translate(-112.59 -167.99)" fill-rule="evenodd" stroke="#000">
  <path d="m119.46 218.08 5.8928 7.3214 16.25-11.786 41.964-15 6.6071-5.5357-1.9643-5.5357-29.286 4.6429s-28.214 15.179-28.929 15.536c-0.71429 0.35714-10.536 10.357-10.536 10.357z" fill="#003805" stroke-width=".35433"/>
  <g transform="matrix(.96764 0 0 .95183 3.9181 .80118)" fill="#6eb300">
   <path d="m146.82 211.03c1.513-0.84639 4.215-0.3963 5.0823 1.1048 1.0388 1.798-0.0744 4.9342-1.894 5.9346-1.5633 0.85956-4.3392 0.21766-5.177-1.3574-0.94237-1.7717 0.23744-4.7024 1.9887-5.6821z" stroke-width="1.1076"/>
   <path d="m147.67 218.1c-0.39848-0.42494 0.0669-1.406 0.59978-1.6415 0.68633-0.30327 2.1218 0.10295 2.0834 0.85232-0.0477 0.93107-2.0455 1.4692-2.6832 0.78918z" stroke-width=".73842"/>
  </g>
  <g transform="matrix(.96764 0 0 .95183 11.045 -2.3708)" fill="#6eb300">
   <path d="m146.82 211.03c1.513-0.84639 4.215-0.3963 5.0823 1.1048 1.0388 1.798-0.0744 4.9342-1.894 5.9346-1.5633 0.85956-4.3392 0.21766-5.177-1.3574-0.94237-1.7717 0.23744-4.7024 1.9887-5.6821z" stroke-width="1.1076"/>
   <path d="m147.67 218.1c-0.39848-0.42494 0.0669-1.406 0.59978-1.6415 0.68633-0.30327 2.1218 0.10295 2.0834 0.85232-0.0477 0.93107-2.0455 1.4692-2.6832 0.78918z" stroke-width=".73842"/>
  </g>
  <g transform="matrix(1.0648 0 0 .95183 5.4038 -5.0047)" fill="#6eb300">
   <path d="m146.82 211.03c1.513-0.84639 4.215-0.3963 5.0823 1.1048 1.0388 1.798-0.0744 4.9342-1.894 5.9346-1.5633 0.85956-4.3392 0.21766-5.177-1.3574-0.94237-1.7717 0.23744-4.7024 1.9887-5.6821z" stroke-width="1.0559"/>
   <path d="m147.67 218.1c-0.39848-0.42494 0.0669-1.406 0.59978-1.6415 0.68633-0.30327 2.1218 0.10295 2.0834 0.85232-0.0477 0.93107-2.0455 1.4692-2.6832 0.78918z" stroke-width=".70393"/>
  </g>
  <g transform="matrix(1.0819 0 0 .95183 12.124 -7.3261)" fill="#6eb300">
   <path d="m146.82 211.03c1.513-0.84639 4.215-0.3963 5.0823 1.1048 1.0388 1.798-0.0744 4.9342-1.894 5.9346-1.5633 0.85956-4.3392 0.21766-5.177-1.3574-0.94237-1.7717 0.23744-4.7024 1.9887-5.6821z" stroke-width="1.0475"/>
   <path d="m147.67 218.1c-0.39848-0.42494 0.0669-1.406 0.59978-1.6415 0.68633-0.30327 2.1218 0.10295 2.0834 0.85232-0.0477 0.93107-2.0455 1.4692-2.6832 0.78918z" stroke-width=".69833"/>
  </g>
  <path d="m193.38 181.04c2.8664-1.6372 3.516-5.4912 4.9245-8.5863 0.0288-0.55043 1.4203-0.67781 1.5468 1.6099-0.48879 3.9846-2.7557 6.0366-5.1455 7.955-0.204-0.56414-0.80196-0.73431-1.3258-0.97858z" fill="#1b2600" stroke-width="1.1693"/>
  <g transform="matrix(1.0646 0 0 1.0163 -23.636 16.367)" fill="#6eb300">
   <path d="m146.82 211.03c1.513-0.84639 4.215-0.3963 5.0823 1.1048 1.0388 1.798-0.0744 4.9342-1.894 5.9346-1.5633 0.85956-4.3392 0.21766-5.177-1.3574-0.94237-1.7717 0.23744-4.7024 1.9887-5.6821z" stroke-width="1.022"/>
   <path d="m147.67 218.1c-0.39848-0.42494 0.0669-1.406 0.59978-1.6415 0.68633-0.30327 2.1218 0.10295 2.0834 0.85232-0.0477 0.93107-2.0455 1.4692-2.6832 0.78918z" stroke-width=".6813"/>
  </g>
  <g transform="matrix(.18405 1.0157 -1.0159 .18407 331.03 39.937)" fill="#6eb300">
   <path d="m146.82 211.03c1.513-0.84639 4.215-0.3963 5.0823 1.1048 1.0388 1.798-0.0744 4.9342-1.894 5.9346-1.5633 0.85956-4.3392 0.21766-5.177-1.3574-0.94237-1.7717 0.23744-4.7024 1.9887-5.6821z" stroke-width="1.0297"/>
   <path d="m147.67 218.1c-0.39848-0.42494 0.0669-1.406 0.59978-1.6415 0.68633-0.30327 2.1218 0.10295 2.0834 0.85232-0.0477 0.93107-2.0455 1.4692-2.6832 0.78918z" stroke-width=".68646"/>
  </g>
  <g transform="matrix(.23604 1.0712 -1.0397 .22909 350.9 14.974)" fill="#6eb300">
   <path d="m146.82 211.03c1.513-0.84639 4.215-0.3963 5.0823 1.1048 1.0388 1.798-0.0744 4.9342-1.894 5.9346-1.5633 0.85956-4.3392 0.21766-5.177-1.3574-0.94237-1.7717 0.23744-4.7024 1.9887-5.6821z" stroke-width=".98366"/>
   <path d="m147.67 218.1c-0.39848-0.42494 0.0669-1.406 0.59978-1.6415 0.68633-0.30327 2.1218 0.10295 2.0834 0.85232-0.0477 0.93107-2.0455 1.4692-2.6832 0.78918z" stroke-width=".65577"/>
  </g>
  <g transform="matrix(1.1101 .1184 -.13463 .94468 46.216 -26.22)" fill="#6eb300">
   <path d="m146.82 211.03c1.513-0.84639 4.215-0.3963 5.0823 1.1048 1.0388 1.798-0.0744 4.9342-1.894 5.9346-1.5633 0.85956-4.3392 0.21766-5.177-1.3574-0.94237-1.7717 0.23744-4.7024 1.9887-5.6821z" stroke-width="1.0302"/>
   <path d="m147.67 218.1c-0.39848-0.42494 0.0669-1.406 0.59978-1.6415 0.68633-0.30327 2.1218 0.10295 2.0834 0.85232-0.0477 0.93107-2.0455 1.4692-2.6832 0.78918z" stroke-width=".68681"/>
  </g>
  <g transform="matrix(-1.0112 -.53793 .52928 -.99496 203 509.16)" fill="#6eb300">
   <path d="m146.82 211.03c1.513-0.84639 4.215-0.3963 5.0823 1.1048 1.0388 1.798-0.0744 4.9342-1.894 5.9346-1.5633 0.85956-4.3392 0.21766-5.177-1.3574-0.94237-1.7717 0.23744-4.7024 1.9887-5.6821z" stroke-width=".9356"/>
   <path d="m147.67 218.1c-0.39848-0.42494 0.0669-1.406 0.59978-1.6415 0.68633-0.30327 2.1218 0.10295 2.0834 0.85232-0.0477 0.93107-2.0455 1.4692-2.6832 0.78918z" stroke-width=".62374"/>
  </g>
  <g transform="matrix(.90505 0 0 .98 6.5621 -1.5612)" fill="#6eb300">
   <path d="m146.82 211.03c1.513-0.84639 4.215-0.3963 5.0823 1.1048 1.0388 1.798-0.0744 4.9342-1.894 5.9346-1.5633 0.85956-4.3392 0.21766-5.177-1.3574-0.94237-1.7717 0.23744-4.7024 1.9887-5.6821z" stroke-width="1.1287"/>
   <path d="m147.67 218.1c-0.39848-0.42494 0.0669-1.406 0.59978-1.6415 0.68633-0.30327 2.1218 0.10295 2.0834 0.85232-0.0477 0.93107-2.0455 1.4692-2.6832 0.78918z" stroke-width=".75247"/>
  </g>
  <g transform="matrix(.40576 -.98424 .92467 .3812 -83.072 289.64)" fill="#6eb300">
   <path d="m146.82 211.03c1.513-0.84639 4.215-0.3963 5.0823 1.1048 1.0388 1.798-0.0744 4.9342-1.894 5.9346-1.5633 0.85956-4.3392 0.21766-5.177-1.3574-0.94237-1.7717 0.23744-4.7024 1.9887-5.6821z" stroke-width="1.0301"/>
   <path d="m147.67 218.1c-0.39848-0.42494 0.0669-1.406 0.59978-1.6415 0.68633-0.30327 2.1218 0.10295 2.0834 0.85232-0.0477 0.93107-2.0455 1.4692-2.6832 0.78918z" stroke-width=".68677"/>
  </g>
  <g transform="matrix(.83632 -.35188 .32995 .86299 -60.407 79.888)" fill="#6eb300">
   <path d="m146.82 211.03c1.513-0.84639 4.215-0.3963 5.0823 1.1048 1.0388 1.798-0.0744 4.9342-1.894 5.9346-1.5633 0.85956-4.3392 0.21766-5.177-1.3574-0.94237-1.7717 0.23744-4.7024 1.9887-5.6821z" stroke-width="1.1613"/>
   <path d="m147.67 218.1c-0.39848-0.42494 0.0669-1.406 0.59978-1.6415 0.68633-0.30327 2.1218 0.10295 2.0834 0.85232-0.0477 0.93107-2.0455 1.4692-2.6832 0.78918z" stroke-width=".77421"/>
  </g>
  <g transform="matrix(1.1131 0 0 1.0646 17.467 -1.516)" fill="#6eb300">
   <path d="m146.82 211.03c1.513-0.84639 4.215-0.3963 5.0823 1.1048 1.0388 1.798-0.0744 4.9342-1.894 5.9346-1.5633 0.85956-4.3392 0.21766-5.177-1.3574-0.94237-1.7717 0.23744-4.7024 1.9887-5.6821z" stroke-width=".97649"/>
   <path d="m147.67 218.1c-0.39848-0.42494 0.0669-1.406 0.59978-1.6415 0.68633-0.30327 2.1218 0.10295 2.0834 0.85232-0.0477 0.93107-2.0455 1.4692-2.6832 0.78918z" stroke-width=".651"/>
  </g>
  <g transform="matrix(.92676 .61649 -.66997 1.0072 192.38 -86.799)" fill="#6eb300">
   <path d="m146.82 211.03c1.513-0.84639 4.215-0.3963 5.0823 1.1048 1.0388 1.798-0.0744 4.9342-1.894 5.9346-1.5633 0.85956-4.3392 0.21766-5.177-1.3574-0.94237-1.7717 0.23744-4.7024 1.9887-5.6821z" stroke-width=".91609"/>
   <path d="m147.67 218.1c-0.39848-0.42494 0.0669-1.406 0.59978-1.6415 0.68633-0.30327 2.1218 0.10295 2.0834 0.85232-0.0477 0.93107-2.0455 1.4692-2.6832 0.78918z" stroke-width=".61073"/>
  </g>
  <g transform="matrix(.96764 0 0 .95183 -15.294 13.299)" fill="#6eb300">
   <path d="m146.82 211.03c1.513-0.84639 4.215-0.3963 5.0823 1.1048 1.0388 1.798-0.0744 4.9342-1.894 5.9346-1.5633 0.85956-4.3392 0.21766-5.177-1.3574-0.94237-1.7717 0.23744-4.7024 1.9887-5.6821z" stroke-width="1.1076"/>
   <path d="m147.67 218.1c-0.39848-0.42494 0.0669-1.406 0.59978-1.6415 0.68633-0.30327 2.1218 0.10295 2.0834 0.85232-0.0477 0.93107-2.0455 1.4692-2.6832 0.78918z" stroke-width=".73842"/>
  </g>
  <g transform="matrix(-.57497 -.9719 .97175 -.57488 66.762 498.73)" fill="#6eb300">
   <path d="m146.82 211.03c1.513-0.84639 4.215-0.3963 5.0823 1.1048 1.0388 1.798-0.0744 4.9342-1.894 5.9346-1.5633 0.85956-4.3392 0.21766-5.177-1.3574-0.94237-1.7717 0.23744-4.7024 1.9887-5.6821z" stroke-width=".9414"/>
   <path d="m147.67 218.1c-0.39848-0.42494 0.0669-1.406 0.59978-1.6415 0.68633-0.30327 2.1218 0.10295 2.0834 0.85232-0.0477 0.93107-2.0455 1.4692-2.6832 0.78918z" stroke-width=".6276"/>
  </g>
  <path d="m123.57 223.52c-0.0296 1.2946 0.93898 2.4229-0.35714 3.9286-0.16282 1.1444 0.14934 2.7415 1.6071 1.3393 3.4562-2.9392 4.8576-3.8568 11.339-7.9464 5.0827-3.2069 10.631-6.7037 16.229-8.7801 2.2951-0.85129 5.736-1.9116 8.0569-2.6485 6.6856-2.1228 10.685-3.4779 15.893-5.1786 4.8521-1.5844 12.559-6.3641 13.929-8.75l3.2143-4.8214-2.1428-0.17857s-2.6248 3.188-4.2857 4.375c-2.3611 1.6874-5.1531 2.6965-7.8571 3.75-2.5527 0.9945-5.2312 1.6298-7.8571 2.4107-3.7108 1.1036-7.4932 1.9742-11.161 3.2143-3.5707 1.2074-7.1121 2.5302-10.536 4.1072-3.8942 1.7938-7.7287 3.7592-11.339 6.0714-2.4512 1.5697-5.411 4.155-6.9643 5.2679-1.2596 0.90242-1.7686 1.0543-4.5536 3.4821-1.4824 0.52997-2.4425 0.53774-3.2143 0.35715z" fill="#007910" stroke-width="1.7717"/>
  <g transform="matrix(-1.162 -.069676 .068547 -1.1431 325.16 496.41)" fill="#6eb300">
   <path d="m146.82 211.03c1.513-0.84639 4.215-0.3963 5.0823 1.1048 1.0388 1.798-0.0744 4.9342-1.894 5.9346-1.5633 0.85956-4.3392 0.21766-5.177-1.3574-0.94237-1.7717 0.23744-4.7024 1.9887-5.6821z" stroke-width=".92068"/>
   <path d="m147.67 218.1c-0.39848-0.42494 0.0669-1.406 0.59978-1.6415 0.68633-0.30327 2.1218 0.10295 2.0834 0.85232-0.0477 0.93107-2.0455 1.4692-2.6832 0.78918z" stroke-width=".61379"/>
  </g>
  <g transform="matrix(.48109 .96778 -.98218 .48825 312.24 -11.004)" fill="#6eb300">
   <path d="m146.82 211.03c1.513-0.84639 4.215-0.3963 5.0823 1.1048 1.0388 1.798-0.0744 4.9342-1.894 5.9346-1.5633 0.85956-4.3392 0.21766-5.177-1.3574-0.94237-1.7717 0.23744-4.7024 1.9887-5.6821z" stroke-width=".97632"/>
   <path d="m147.67 218.1c-0.39848-0.42494 0.0669-1.406 0.59978-1.6415 0.68633-0.30327 2.1218 0.10295 2.0834 0.85232-0.0477 0.93107-2.0455 1.4692-2.6832 0.78918z" stroke-width=".65088"/>
  </g>
  <g transform="matrix(-.57182 1.0297 -1.0577 -.58739 494.17 216.94)" fill="#6eb300">
   <path d="m146.82 211.03c1.513-0.84639 4.215-0.3963 5.0823 1.1048 1.0388 1.798-0.0744 4.9342-1.894 5.9346-1.5633 0.85956-4.3392 0.21766-5.177-1.3574-0.94237-1.7717 0.23744-4.7024 1.9887-5.6821z" stroke-width=".89048"/>
   <path d="m147.67 218.1c-0.39848-0.42494 0.0669-1.406 0.59978-1.6415 0.68633-0.30327 2.1218 0.10295 2.0834 0.85232-0.0477 0.93107-2.0455 1.4692-2.6832 0.78918z" stroke-width=".59365"/>
  </g>
  <g transform="matrix(.5771 -.93285 .90537 .5601 -81.124 220.28)" fill="#6eb300">
   <path d="m146.82 211.03c1.513-0.84639 4.215-0.3963 5.0823 1.1048 1.0388 1.798-0.0744 4.9342-1.894 5.9346-1.5633 0.85956-4.3392 0.21766-5.177-1.3574-0.94237-1.7717 0.23744-4.7024 1.9887-5.6821z" stroke-width=".98366"/>
   <path d="m147.67 218.1c-0.39848-0.42494 0.0669-1.406 0.59978-1.6415 0.68633-0.30327 2.1218 0.10295 2.0834 0.85232-0.0477 0.93107-2.0455 1.4692-2.6832 0.78918z" stroke-width=".65577"/>
  </g>
  <g transform="matrix(-.65319 -.86104 .80966 -.61422 128.74 464.27)" fill="#6eb300">
   <path d="m146.82 211.03c1.513-0.84639 4.215-0.3963 5.0823 1.1048 1.0388 1.798-0.0744 4.9342-1.894 5.9346-1.5633 0.85956-4.3392 0.21766-5.177-1.3574-0.94237-1.7717 0.23744-4.7024 1.9887-5.6821z" stroke-width="1.0143"/>
   <path d="m147.67 218.1c-0.39848-0.42494 0.0669-1.406 0.59978-1.6415 0.68633-0.30327 2.1218 0.10295 2.0834 0.85232-0.0477 0.93107-2.0455 1.4692-2.6832 0.78918z" stroke-width=".67619"/>
  </g>
  <g transform="matrix(-.49953 .9584 -.92979 -.48462 479.1 188.56)" fill="#6eb300">
   <path d="m146.82 211.03c1.513-0.84639 4.215-0.3963 5.0823 1.1048 1.0388 1.798-0.0744 4.9342-1.894 5.9346-1.5633 0.85956-4.3392 0.21766-5.177-1.3574-0.94237-1.7717 0.23744-4.7024 1.9887-5.6821z" stroke-width=".99857"/>
   <path d="m147.67 218.1c-0.39848-0.42494 0.0669-1.406 0.59978-1.6415 0.68633-0.30327 2.1218 0.10295 2.0834 0.85232-0.0477 0.93107-2.0455 1.4692-2.6832 0.78918z" stroke-width=".66572"/>
  </g>
  <path d="m188.65 188.93c0.12371 1.2464 0.37345 2.2588-0.0631 4.5457l2.9042-2.9358-0.0316-3.3461c-0.89654 1.1049-1.8715 1.1776-2.8095 1.7362z" fill="#005d0c" stroke-linejoin="bevel" stroke-width="1.063"/>
  <path d="m118.75 225.4c0.51474-1.4467 0.30036-2.4979 0.35714-3.3036l-1.7857-2.7679c-0.47163-3.3974-0.86137-6.7469 2.3214-10.893 4.3942-5.7239 9.38-9.5345 15.357-12.946 7.7605-4.4299 16.521-7.0085 24.107-9.375 7.1019-2.2155 15.608-3.0674 19.107-2.6786l11.25 1.25c1.443 0.90312 4.065 1.5382 0.53571 3.5714-2.6052 1.3984-7.0139 2.2134-10.714 3.0357l-17.679 3.9286c-6.1438 1.3653-11.379 3.5714-17.411 6.875-3.5126 1.9239-9.6449 4.8281-12.946 9.375 0 0-2.8957 4.4614-4.4643 6.6071-1.7007 2.3265-5.3571 6.7857-5.3571 6.7857-0.80099 0.80392-2.7725 2.1929-2.6786 0.53572z" fill="#007910" stroke-width="1.7717"/>
  <path d="m178.1 179.31c0.55777 1.8249 1.4751 6.4602 8.9566 6.5305 0.81784 0.63139 2.0403 0.7252 4.4643-0.17857l0.0893 3.4822-0.87754 1.6333c-0.25075 0.70451-0.45035 2.5655 0.96683 2.3169l1.4286-1.1824c0.52132-0.33243 1.9182-1.501 1.839-2.3791-0.40353-1.4083-0.83385-2.7133-0.68809-3.8077-0.29972-1.3414-0.0515-1.8507 0.36705-2.4738 0.56801-1.4141-0.64634-2.7568-2.2168-1.9805-0.71428 1.0417-0.53367-0.62119-1.7009 1.7794-0.40653 1.0013-1.5162 0.68299-2.1537 0.45278-0.80294-3.3957-3.9379-3.2337-5.4997-3.971 0.67167 0.98061 3.2676 3.5346 2.7525 4.0548-1.0962 0.0911-5.3677-2.5416-7.7274-4.2767z" fill="#345200" stroke-linejoin="round" stroke-width="1.063"/>
 </g>
</svg>
